PathFileType	4	(x/y/z)	TRC_MarkerData\Passive\Passive_Pref0002.trc
DataRate	CameraRate	NumFrames	NumMarkers	Units	OrigDataRate	OrigDataStartFrame	OrigNumFrames
240	240	7	50	mm	240	266	303
Frame#	Time	R_AC			L_AC			HEAD			STERN			C7			L_IC			R_IC			L_ASIS			R_ASIS			L_GT			R_GT			L_PSIS			R_PSIS			SACRAL			L_LAT_KNEE			L_MED_KNEE			R_LAT_KNEE			R_MED_KNEE			L_LAT_ANK			L_MED_ANK			R_LAT_ANK			R_MED_ANK			L_THIGH_PROX_POST			L_THIGH_PROX_ANT			L_THIGH_DIST_ANT			L_THIGH_DIST_POST			R_THIGH_PROX_POST			R_THIGH_PROX_ANT			R_THIGH_DIST_ANT			R_THIGH_DIST_POST			L_SHANK_PROX_POST			L_SHANK_PROX_ANT			L_SHANK_DIST_ANT			L_SHANK_DIST_POST			R_SHANK_PROX_POST			R_SHANK_PROX_ANT			R_SHANK_DIST_ANT			R_SHANK_DIST_POST			L_HEEL_LAT			L_HEEL_SUP			L_HEEL_MED			R_HEEL_LAT			R_HEEL_SUP			R_HEEL_MED			L_1ST_MET			L_5TH_MET			L_TOE			R_1ST_MET			R_5TH_MET			R_TOE			
		X1	Y1	Z1	X2	Y2	Z2	X3	Y3	Z3	X4	Y4	Z4	X5	Y5	Z5	X6	Y6	Z6	X7	Y7	Z7	X8	Y8	Z8	X9	Y9	Z9	X10	Y10	Z10	X11	Y11	Z11	X12	Y12	Z12	X13	Y13	Z13	X14	Y14	Z14	X15	Y15	Z15	X16	Y16	Z16	X17	Y17	Z17	X18	Y18	Z18	X19	Y19	Z19	X20	Y20	Z20	X21	Y21	Z21	X22	Y22	Z22	X23	Y23	Z23	X24	Y24	Z24	X25	Y25	Z25	X26	Y26	Z26	X27	Y27	Z27	X28	Y28	Z28	X29	Y29	Z29	X30	Y30	Z30	X31	Y31	Z31	X32	Y32	Z32	X33	Y33	Z33	X34	Y34	Z34	X35	Y35	Z35	X36	Y36	Z36	X37	Y37	Z37	X38	Y38	Z38	X39	Y39	Z39	X40	Y40	Z40	X41	Y41	Z41	X42	Y42	Z42	X43	Y43	Z43	X44	Y44	Z44	X45	Y45	Z45	X46	Y46	Z46	X47	Y47	Z47	X48	Y48	Z48	X49	Y49	Z49	X50	Y50	Z50	
 
266	1.1078	535.9	1537.5	519.91	532.3	1555.7	127.58	646.44	1845.7	340.19	634.18	1504.6	325.86	493.93	1591.6	327.33	530.3	1103.5	162.06	524.38	1120.9	502.94	598.8	1044.9	205.03	585.91	1039.2	474.93	530.64	965.22	142.01	487.8	974.54	514.16	390.3	1060.8	274.01	392.34	1071.2	382.52	377.03	1042.9	329.45	712.26	593.9	176.25	714.84	595.24	312.54	412.92	561.25	466.04	435.48	557.97	340.94	719.07	140.45	163.47	708.1	137.49	240.26	283.2	119.36	392.57	317.33	137.92	296.58	570	813.05	153.17	632.06	833.88	156.36	665.01	764.84	164.98	600.47	744.95	162.39	438.17	807.25	502.76	504.08	795.2	511.33	486.14	723.72	497.97	419.7	735.88	486.82	724.66	541.21	181.32	763.55	560.82	198.28	770.5	511.07	202.16	726.79	486.96	183.5	300.25	423.09	442.67	366.77	417.23	466.7	360.35	344.32	451.93	294.51	347.79	429.72	669.69	56.602	153.98	651.05	76.398	189.65	661.53	44.247	219.27	212.44	79.003	360.12	212.26	106.21	325.05	226.89	77.347	294.27	877.99	89.199	273.67	874.46	89.053	166.59	929.44	109.66	256.51	453.68	42.196	315.95	408.1	35.39	422.73	494.02	42.609	370.4
267	1.112	541.22	1536.3	519.77	537.69	1554.5	127.44	651.84	1844.5	340.03	639.57	1503.3	325.74	499.44	1590.5	327.14	535.27	1102.2	161.94	529.34	1119.8	502.9	603.73	1043.6	204.96	590.78	1038	474.89	535.46	963.88	142	492.4	973.76	514.2	395.24	1059.7	273.94	397.29	1070.3	382.42	381.88	1042	329.4	717.83	593.33	177.09	720.57	594.76	313.38	414.65	561.15	466.05	437	557.75	340.85	734.12	140.16	164.32	723.33	137.01	241.16	283.39	119.63	392.4	317.61	138.11	296.46	574.81	811.65	153.5	636.96	832.47	156.52	669.8	763.34	165.59	605.51	743.47	162.88	441.65	806.99	502.87	507.5	794.5	511.24	489.08	723.17	497.85	422.71	735.76	486.9	731.33	540.92	182.15	769.8	561.34	199.05	777.78	511.75	202.93	734.59	486.73	184.32	301.29	423.38	442.6	367.76	417.32	466.7	361.13	344.43	451.92	295.34	348.1	429.65	686.49	55.303	154.93	667.44	74.707	190.6	678.65	42.765	220.2	212.56	79.416	359.95	212.45	106.61	324.88	227.04	77.716	294.1	894.18	92.234	274.33	890.53	92.02	167.25	945.16	113.77	257.09	453.75	42.129	315.96	408.1	35.403	422.7	494.06	42.524	370.42
268	1.1162	546.57	1535.1	519.62	543.07	1553.2	127.3	657.24	1843.3	339.86	644.96	1502	325.62	504.96	1589.3	326.94	540.23	1101	161.81	534.32	1118.7	502.85	608.66	1042.3	204.88	595.68	1036.9	474.84	540.28	962.48	141.99	497.04	972.94	514.24	400.19	1058.6	273.87	402.26	1069.3	382.33	386.74	1041	329.36	723.33	592.7	177.91	726.28	594.23	314.21	416.41	561.05	466.06	438.57	557.52	340.76	748.99	140	165.19	738.44	136.67	242.1	283.58	119.9	392.23	317.89	138.3	296.35	579.6	810.18	153.83	641.85	830.99	156.67	674.47	761.78	166.21	610.56	741.92	163.37	445.17	806.7	502.98	510.96	793.78	511.15	492.06	722.59	497.72	425.77	735.63	486.96	737.91	540.59	182.96	775.97	561.81	199.78	784.98	512.39	203.66	742.29	486.47	185.14	302.36	423.68	442.53	368.77	417.41	466.71	361.93	344.54	451.91	296.18	348.41	429.58	703.12	54.173	155.93	683.69	73.184	191.61	695.63	41.469	221.18	212.69	79.833	359.79	212.64	107.03	324.71	227.2	78.092	293.94	910.17	95.394	274.96	906.36	95.101	167.89	960.66	117.99	257.62	453.83	42.064	315.98	408.11	35.415	422.68	494.1	42.441	370.45
269	1.1204	551.95	1533.8	519.47	548.46	1551.8	127.15	662.65	1842.1	339.68	650.38	1500.7	325.48	510.5	1588.2	326.75	545.21	1099.6	161.67	539.32	1117.6	502.8	613.6	1040.8	204.78	600.61	1035.7	474.78	545.12	961.04	141.98	501.7	972.11	514.29	405.16	1057.4	273.8	407.26	1068.4	382.23	391.62	1040	329.31	728.78	592.01	178.71	731.97	593.67	315.01	418.22	560.94	466.07	440.17	557.29	340.67	763.68	139.96	166.09	753.4	136.47	243.08	283.77	120.18	392.06	318.18	138.49	296.24	584.37	808.67	154.16	646.73	829.45	156.81	679.02	760.16	166.84	615.6	740.31	163.85	448.73	806.39	503.09	514.46	793.04	511.05	495.08	722	497.58	428.86	735.47	487.02	744.42	540.21	183.75	782.06	562.21	200.49	792.07	513	204.37	749.91	486.2	185.94	303.47	423.98	442.46	369.82	417.5	466.71	362.75	344.65	451.9	297.05	348.74	429.52	719.57	53.204	156.97	699.78	71.822	192.67	712.45	40.352	222.22	212.83	80.258	359.63	212.83	107.45	324.55	227.36	78.478	293.78	925.93	98.668	275.57	921.94	98.284	168.5	975.91	122.31	258.11	453.9	42.002	316	408.11	35.427	422.66	494.15	42.359	370.47
270	1.1245	557.36	1532.5	519.31	553.85	1550.5	126.99	668.08	1840.8	339.49	655.81	1499.3	325.34	516.06	1587	326.55	550.2	1098.3	161.53	544.34	1116.4	502.75	618.56	1039.4	204.67	605.57	1034.5	474.71	549.98	959.56	141.96	506.4	971.25	514.33	410.14	1056.2	273.73	412.28	1067.4	382.12	396.52	1039	329.27	734.17	591.26	179.49	737.64	593.07	315.79	420.06	560.82	466.08	441.83	557.06	340.58	778.18	140.02	167.01	768.2	136.4	244.09	283.97	120.46	391.9	318.47	138.69	296.14	589.13	807.1	154.49	651.61	827.86	156.94	683.49	758.49	167.47	620.65	738.64	164.31	452.34	806.06	503.2	518.01	792.28	510.95	498.14	721.38	497.44	432.01	735.29	487.08	750.86	539.79	184.52	788.08	562.56	201.16	799.08	513.56	205.04	757.43	485.9	186.73	304.6	424.28	442.39	370.89	417.58	466.72	363.6	344.76	451.9	297.95	349.06	429.46	735.83	52.389	158.06	715.71	70.613	193.78	729.1	39.407	223.3	212.96	80.691	359.48	213.02	107.88	324.39	227.52	78.875	293.63	941.45	102.04	276.15	937.26	101.55	169.09	990.91	126.7	258.57	453.96	41.943	316.02	408.11	35.438	422.64	494.19	42.277	370.5
271	1.1287	562.81	1531.2	519.15	559.26	1549	126.83	673.51	1839.5	339.28	661.26	1497.9	325.18	521.63	1585.7	326.36	555.2	1096.9	161.37	549.4	1115.2	502.69	623.54	1037.9	204.55	610.57	1033.3	474.62	554.86	958.05	141.94	511.13	970.36	514.38	415.15	1054.9	273.66	417.32	1066.3	382.01	401.44	1038	329.22	739.51	590.45	180.25	743.3	592.43	316.55	421.96	560.7	466.09	443.54	556.83	340.5	792.48	140.18	167.95	782.84	136.46	245.14	284.17	120.74	391.75	318.77	138.9	296.05	593.88	805.49	154.82	656.49	826.22	157.06	687.88	756.77	168.1	625.7	736.93	164.77	456	805.71	503.31	521.59	791.5	510.86	501.25	720.75	497.29	435.2	735.1	487.12	757.23	539.33	185.27	794.02	562.84	201.8	806.01	514.08	205.69	764.88	485.58	187.5	305.78	424.6	442.33	372.01	417.67	466.74	364.48	344.88	451.9	298.88	349.4	429.41	751.89	51.719	159.19	731.45	69.55	194.93	745.56	38.627	224.42	213.1	81.133	359.34	213.22	108.33	324.24	227.68	79.287	293.48	956.73	105.51	276.72	952.31	104.9	169.67	1005.7	131.16	259	454.03	41.888	316.05	408.11	35.448	422.62	494.23	42.195	370.53
272	1.1329	568.3	1529.9	518.99	564.69	1547.6	126.65	678.96	1838.2	339.07	666.73	1496.4	325.01	527.23	1584.4	326.16	560.22	1095.4	161.2	554.48	1113.9	502.62	628.54	1036.4	204.42	615.6	1032	474.53	559.76	956.5	141.91	515.89	969.46	514.42	420.17	1053.7	273.58	422.4	1065.3	381.9	406.38	1036.9	329.17	744.82	589.58	180.98	748.94	591.76	317.29	423.9	560.57	466.1	445.31	556.59	340.42	806.58	140.44	168.9	797.3	136.62	246.21	284.38	121.03	391.61	319.07	139.12	295.96	598.63	803.84	155.15	661.38	824.54	157.18	692.23	755.01	168.71	630.74	735.19	165.22	459.71	805.34	503.42	525.23	790.7	510.77	504.41	720.1	497.15	438.43	734.88	487.16	763.54	538.82	186	799.91	563.07	202.42	812.85	514.56	206.32	772.25	485.24	188.26	307	424.91	442.27	373.17	417.76	466.76	365.4	344.99	451.91	299.85	349.74	429.37	767.73	51.182	160.36	746.99	68.625	196.11	761.81	38.001	225.57	213.24	81.588	359.21	213.42	108.79	324.1	227.85	79.715	293.34	971.76	109.04	277.28	967.09	108.29	170.23	1020.1	135.65	259.41	454.09	41.836	316.07	408.12	35.457	422.61	494.28	42.113	370.56
